#!OML:ASF F:\VICON\USERDATA\INSTALL\rory3\rory3.ASF
:FULLY-SPECIFIED
:DEGREES
45
root 0.8964879691104869 18.01645602778493 26.784251323944346 -2.8281581732364067 1.8270950351184279 1.156957911184778
lfemur 6.850097072088214 -4.15969559601679 -24.67914221449632
ltibia 27.838294545525674
lfoot -1.9369626582895565 -5.01779716193153
ltoes -14.063883238986028
rfemur -22.679583048830132 -1.385979835122424 19.406456119824735
rtibia 41.31019669571266
rfoot -5.5657234679168335 -4.755519195344417
rtoes 7.5824831522507665
lowerback 10.667951498641774 -1.4224933171604854 -2.712226504658834
upperback -0.018524943245426986 -2.309530738286859 1.717698342145724
thorax -5.842817467838709 -1.0800326379751677 4.054664113272532
lowerneck -16.477287320194094 -2.870992386593453 -2.130853698786308
upperneck 22.69600119568044 -3.575863231456615 0.8744881551352448
head 10.099896241727539 -1.7889050980747774 0.23212702257762768
lclavicle -2.5090921050685117e-15 -2.730137164522734e-15
lhumerus -25.070367850005525 -2.371187850432374 81.08846407919191
lradius 27.67636377068467
lwrist 8.316448305075221
lhand -29.42361732457427 18.979734681930406
lfingers nan
lthumb -2.652729955776581 49.237976436103175
rclavicle -2.4824441638850684e-15 -2.7165577146776637e-15
rhumerus -37.50272299936762 -23.155811300361027 -77.22615301451918
rradius 28.964712595804585
rwrist 1.6138542699406142
rhand -17.269354126159083 22.75741402878537
rfingers nan
rthumb 8.853731536198291 -6.863931940629318
46
root 0.9165292352034637 17.983712753539432 28.872912111434253 -3.460444694306273 1.539439384071139 2.412968220978851
lfemur 7.103663545936083 -4.132493156869237 -25.554685478485876
ltibia 30.052795510515228
lfoot -1.6848581623273002 -4.980055974871309
ltoes -13.019898911789614
rfemur -22.071502254643974 -1.8104499884095024 18.16880230643374
rtibia 39.79698968879335
rfoot -6.081421190014194 -5.686542165402342
rtoes 7.830809815290548
lowerback 10.824082866523755 -1.444900885702886 -3.8263993440540798
upperback 0.08289203755259665 -2.5254107005994015 1.5463680238584756
thorax -5.7120466871632685 -1.1517335678395602 4.1661329716324715
lowerneck -16.508762863513866 -2.8916133299136044 -2.1689203834215136
upperneck 22.646351718459822 -3.6017135918919374 0.8456906216894886
head 10.079213479570544 -1.8027663450897449 0.22018089669817445
lclavicle -2.5114518054242323e-15 -2.7310281983532044e-15
lhumerus -25.67724907239634 -2.2488225931886494 81.41669494947212
lradius 25.537060660527658
lwrist 8.8807928278091
lhand -29.35471721755629 19.19143751239826
lfingers nan
lthumb -2.6125867126741245 49.33212751374188
rclavicle -2.4820772066930103e-15 -2.7159605191332406e-15
rhumerus -37.73944902066408 -24.128850251054804 -76.05609010427865
rradius 29.405719092477526
rwrist 2.6077335270788513
rhand -17.25207166134894 22.96905877309595
rfingers nan
rthumb 8.88717090229026 -6.651865268073384
47
root 0.9479109089891848 17.971487463294388 31.003972977957943 -3.181073467841594 1.935586738242508 1.542237708795453
lfemur 6.471685451799008 -4.107587452726415 -24.522413098709055
ltibia 33.20724985772867
lfoot -2.3827394192376747 -4.930732487132548
ltoes -11.308786110182986
rfemur -22.166205122419793 -2.06128352334348 19.126690402746668
rtibia 39.163335974757366
rfoot -6.680958961567303 -6.669928053839659
rtoes 7.773884388878833
lowerback 10.790971863741847 -1.6536494676453264 -3.1413450205099567
upperback 0.0806511649250438 -2.572062139920525 1.7358718353099827
thorax -5.721452306143827 -1.1650632794593283 4.080993185577523
lowerneck -16.52063566182698 -2.9058618177102393 -2.17690245276186
upperneck 22.535738723150182 -3.6164335725905 0.8355770224042596
head 10.00869248817134 -1.8165740881954615 0.21793762453984325
lclavicle -2.515658132505737e-15 -2.7332622527664123e-15
lhumerus -26.352500082003452 -1.9447810379049222 81.71538054294632
lradius 23.46152931946937
lwrist 9.455088878116904
lhand -29.36388396437825 19.054858192528652
lfingers nan
lthumb -2.5862186330991084 49.206145556479484
rclavicle -2.483805000509987e-15 -2.716813240422719e-15
rhumerus -37.69048101674876 -25.113394059150306 -74.9800061029657
rradius 29.65701860405561
rwrist 3.830872546852313
rhand -17.335233426531087 22.873346916660967
rfingers nan
rthumb 8.775926356049387 -6.89087389295
48
root 0.9520369308799386 17.93649489110512 31.667727893849403 -3.603310771141635 1.4617571456942453 1.2745464806978934
lfemur 5.882321732079257 -3.7986399516168445 -23.905422533237918
ltibia 36.39343266212575
lfoot -3.591327890364927 -4.461637307181884
ltoes -10.127615559893025
rfemur -22.42087876053621 -1.8661102736472492 19.530889520475814
rtibia 39.10372916106573
rfoot -7.375258412973832 -7.6010205960996435
rtoes 7.3740882546148745
lowerback 10.899942939492188 -1.604448099122118 -3.0938447245682257
upperback 0.06392150523505076 -2.4954971442119525 1.8078075630287729
thorax -5.789912226334506 -1.1382934270130138 3.962724376364183
lowerneck -16.567878159977763 -2.9267911990315225 -2.145292070337066
upperneck 22.41895865323937 -3.658655656116379 0.7969901917392129
head 9.942039585358973 -1.836619066154873 0.19683113603021452
lclavicle -2.5154899939991148e-15 -2.7334912204398483e-15
lhumerus -27.133932531633096 -1.3553869253627604 82.00023707864
lradius 21.73989840711593
lwrist 9.890547617316916
lhand -29.354217141201016 19.004358145850894
lfingers nan
lthumb -2.5682631370204527 49.04518650920134
rclavicle -2.4842314236059908e-15 -2.7173160789289175e-15
rhumerus -37.266835080163744 -25.893592649204642 -74.13862033207158
rradius 29.73891652477605
rwrist 4.719357624419732
rhand -17.377258405046792 22.712409541080476
rfingers nan
rthumb 8.769921485895432 -7.081940035745042
49
root 0.9623081979789285 17.907189792086612 33.28849797481789 -3.6554293894765815 1.179903521492177 0.29875818836254453
lfemur 5.0205447107100944 -3.328971348849746 -22.3495882623456
ltibia 39.41214700121853
lfoot -4.478304090254967 -3.211589875769278
ltoes -9.232831703515707
rfemur -21.631507216135034 -1.5765809788815028 21.418030473517312
rtibia 38.452106281882315
rfoot -8.333350035586442 -8.421210195595071
rtoes 6.749191431036547
lowerback 10.930560942659845 -1.5296122219037123 -2.302414290232881
upperback 0.07263925685675783 -2.2660900749464936 2.001298640752246
thorax -5.833752589883411 -1.0233034956966192 3.9391065931710294
lowerneck -16.657425675922052 -2.9528755393904684 -2.100393721309772
upperneck 22.34448908447092 -3.7046565551050326 0.7775818961445339
head 9.899043130801939 -1.8589473003168204 0.17163318863762256
lclavicle -2.5152910120609943e-15 -2.7338360259482327e-15
lhumerus -28.152889130067063 -0.5558663957523753 82.26229395961084
lradius 20.688621609671674
lwrist 10.083367495251592
lhand -29.403762940206295 18.824996566588027
lfingers nan
lthumb -2.5921400990335086 48.842387813413744
rclavicle -2.4844464365342128e-15 -2.717807633191296e-15
rhumerus -36.49919348050048 -26.349226583159492 -73.61161873474964
rradius 29.68137637424689
rwrist 4.9304231320196426
rhand -17.476753585378148 22.368678687151053
rfingers nan
rthumb 8.690003299165724 -7.543968759400212
50
root 0.95119926002182 17.869214691803904 33.90931569656483 -3.8960805362616773 0.5690751817018649 -0.11794181468407938
lfemur 3.8990089931279606 -2.6974541251816833 -21.04350905970885
ltibia 42.20266540942492
lfoot -5.665944142807012 -1.9689009665463941
ltoes -9.441636248339675
rfemur -20.675937796423042 -0.9570184750839092 22.557945426500886
rtibia 37.50833171164195
rfoot -9.317502597157603 -9.044013798787
rtoes 5.626024118403701
lowerback 10.953412192134444 -1.3981822499718437 -2.0441338998793626
upperback 0.0776513472209507 -1.9819640387679496 2.1176866459516592
thorax -5.893500723023273 -0.893486687473584 3.7814516809106324
lowerneck -16.731356574396607 -2.9774141149296227 -2.026698958176605
upperneck 22.24675924461947 -3.7506306423931113 0.7577286003287602
head 9.88106036015709 -1.8754746966215965 0.14100065501868242
lclavicle -2.5167753655939676e-15 -2.7349543531193812e-15
lhumerus -29.31684238222402 0.5031854121816091 82.52772558859772
lradius 20.34838305825271
lwrist 10.21932778133003
lhand -29.354930463430534 18.97641205328846
lfingers nan
lthumb -2.5904954589210134 48.808943111510025
rclavicle -2.4876476522076964e-15 -2.71993409777132e-15
rhumerus -35.382399372297925 -26.326995949261992 -73.40981511832308
rradius 29.51428242415026
rwrist 4.656173042396606
rhand -17.544856118781098 22.178234188732727
rfingers nan
rthumb 8.629235177116474 -7.86803103268242
51
root 0.9420893718981975 17.828403864895964 33.48498564545217 -4.194209344692959 -0.36976463622718186 -2.5544856404451313
lfemur 2.01411657472803 -1.736964900320704 -17.425188571882504
ltibia 45.45340670580499
lfoot -5.768092950641111 -0.045720671380618416
ltoes -10.902007398689715
rfemur -19.060365912939567 0.2518395789068033 25.330503085774428
rtibia 35.877419386001016
rfoot -10.012276597090853 -9.3867105317245
rtoes 4.14800245757844
lowerback 11.016849830378144 -0.9780483195191715 -0.13684998389025949
upperback 0.057297704535393026 -1.1039222781411382 2.5121967682230997
thorax -6.039829440321123 -0.5305932213942276 3.2387778711963993
lowerneck -16.797360571360016 -3.0210231962986045 -1.898243298284952
upperneck 22.072810503359783 -3.84229632793266 0.7291922010450332
head 9.83442149428171 -1.9088365076269904 0.09471260975672638
lclavicle -2.517256719875862e-15 -2.735927227663539e-15
lhumerus -30.613533887975017 1.6629012760375468 82.76954157181265
lradius 20.54104610177152
lwrist 10.480534243885444
lhand -29.407345733195193 18.927050471439568
lfingers nan
lthumb -2.6864627777695302 48.65368706089668
rclavicle -2.4895509182415788e-15 -2.7216277784613714e-15
rhumerus -33.998493224725024 -25.79129051819186 -73.4526600981303
rradius 29.293032904332836
rwrist 4.364938773184039
rhand -17.649111441234602 21.957945647592346
rfingers nan
rthumb 8.523893658157817 -8.165916305878861
52
root 0.9220354077746243 17.797258486834696 34.17064596387282 -3.804264989801827 -0.9741588475892505 -6.063491563006648
lfemur -1.0790338511176172 -0.5965269588398128 -12.326168540694947
ltibia 49.089765418306996
lfoot -6.548387448107048 0.5362202152860451
ltoes -12.050189708078715
rfemur -16.313394249439717 2.0436430747730445 29.571160609872233
rtibia 33.44001813462988
rfoot -10.341203529858593 -9.613867515183763
rtoes 2.7591221311518153
lowerback 11.075932700803587 -0.6819825106278083 2.659652670399036
upperback -0.028960894012664093 -0.1286484836983271 2.990794401013808
thorax -6.270598303130507 -0.08565935162109242 2.4320972501107185
lowerneck -16.908308213509088 -3.0707132558361523 -1.7314244577907045
upperneck 21.9620656044887 -3.9409093551127836 0.6994859346278138
head 9.811557412918567 -1.9456349578632688 0.04549249447751624
lclavicle -2.51339854624465e-15 -2.735563017904268e-15
lhumerus -31.987363103481286 2.9032968866444935 82.94743916576991
lradius 21.071829152935795
lwrist 10.724213719555724
lhand -29.51008293739268 18.749323708117227
lfingers nan
lthumb -2.806777795062011 48.47848182675262
rclavicle -2.490544742705651e-15 -2.723684304958661e-15
rhumerus -32.52113481507854 -24.88568249799322 -73.6259920438741
rradius 29.109608087956584
rwrist 4.27618286214054
rhand -17.671724490146737 21.87892754786843
rfingers nan
rthumb 8.488279646082205 -8.206712332242725
